<svg version="1.1" id="Layer_1" xmlns="http://www.w3.org/2000/svg" x="0" y="0" viewBox="0 0 666 458" xml:space="preserve"><style>.st0{fill:#0c00ff}.st2{display:inline}.st3{fill:#0ff}.st4,.st5,.st6,.st7,.st8,.st9{fill:none;stroke:#0ff;stroke-width:.75;stroke-miterlimit:10}.st5,.st6,.st7,.st8,.st9{stroke-dasharray:6.0455,6.0455}.st6,.st7,.st8,.st9{stroke-dasharray:5.9969,5.9969}.st7,.st8,.st9{stroke-dasharray:5.9804,5.9804}.st8,.st9{stroke-dasharray:5.9835,5.9835}.st9{display:inline;stroke-dasharray:6}</style><g id="Logo"><path class="st0" d="M224 133.8c-1.2 11.6-3.3 20.9-11 27.9-5.5 5-10.6 4.6-15.3-.9-8.5-10.1-9.3-33.3-1.4-43.4 5.4-6.9 22-3.6 25.4 5.3 1.5 4 1.8 8.5 2.3 11.1zm-18.4 21c6.6-6.1 7.3-13.3 6.9-20.8-.5-8.3-2.3-9.4-12.1-7.8-1.4 9.7-2.6 19.3 5.2 28.6zM456.7 159.2c-.4 4.8-2.5 7.4-6.1 7.6-3.6.3-6.4-1.9-7.6-5.9-.1-.2-.2-.4-.2-.7-.6-12.5-2.6-26 .3-38.4 1.1-4.5 3.1-6.6 6.1-6.4 3.2.2 5.8 3.2 5.4 7.8-.9 10.8 1.1 22.3 1.9 32.9.2 1.2.2 2.4.2 3.1z"/><path d="M533.8 227.6c-5.6-67.8-9.6-112.9-14-180.7-1.2-13.9 0-37.3-20-44.3-18.6-6.5-36.3 8.3-46 18-81.6 81.5-177.4 143.8-280.1 211.4-3.9 2.6-9.9 2.6-10.2-7.4-1-29.2-3.4-57.6-6.7-87.1-2-18-3.9-51.7-7-79-.3-2.8 2-12 12-13 60-6 114.3-6.8 180-10 4.1-.2 6-1.3 10-2 0 0 3-1 3-3s-1.3-2.1-1.3-2.1c-7.3-4.1-16.7-4.2-24.5-4.7-62.1-3.2-89.7 2.6-151.2 2.9-4.9.2-25 1-29 1-14 0-20.9 3.9-21 20 0 3.4.1 6.6.7 11.3 7.7 65.4 8.3 119.7 11.3 188.7.3 7 4.8 16.3 14 20 10 4 21.2-.9 30-8 32.4-26.2 38-33 72-54 33-24 55.9-35.9 81-55 41.2-30.2 77-60 119-95 7-5.8 6.8-6.6 14-12 1.7-1.3 9-7.2 12-9 5-3 11.6 1 12 9 4 72 12.3 130.7 20 194 .7 6-4 16-14 15-7-.7-19-1-28-2-61.8-6.9-87.1-1.8-149-3-12.7-.2-41.9-.7-56-1-6 0-20.8 2-22.8 4.6-2.7 5.1 3.4 10.5 8.1 10.6 19.2 3.6 39.4 3.2 58.9 3 39.4-.2 78.9.7 118.5 3.8 31.8 2.6 52.7 8 84.3 6.1 33-2.1 21-36.1 20-47.1z"/><path class="st0" d="M1 447.7V375c0-5.5 3.7-9.1 9.2-9.1h20.6c31.9 0 40.3 17.9 40.3 45.4s-8.4 45.4-40.3 45.4H10.3c-5.6 0-9.3-3.5-9.3-9zm29.3-5.6c20.6 0 24.5-10.7 24.5-30.8s-3.9-30.8-24.5-30.8H19.8c-1.6 0-2.5.9-2.5 2.5v56.7c0 1.6.9 2.5 2.5 2.5l10.5-.1zM88.6 447.7V375c0-5.5 3.7-9.1 9.2-9.1h49.3c3 0 4.7 1.6 4.7 4.7v5.2c0 3-1.6 4.7-4.7 4.7h-39.7c-1.6 0-2.5.9-2.5 2.5v20.5h42c3 0 4.7 1.6 4.7 4.7v5.2c0 3-1.6 4.7-4.7 4.7h-42v21.5c0 1.6.9 2.5 2.5 2.5h39.8c3 0 4.7 1.6 4.7 4.7v5.2c0 3-1.6 4.7-4.7 4.7H97.9c-5.6 0-9.3-3.5-9.3-9z"/><path d="M173.7 447.7V375c0-5.5 3.7-9.1 9.2-9.1h27c21.4 0 28 10.5 28 22.4 0 9-3.6 17-14.3 19.6v1.4c13.7 2.3 18.5 10.5 18.5 22.5 0 15.9-8.7 25-33.4 25h-25.8c-5.5-.1-9.2-3.6-9.2-9.1zm34.8-45c10.4 0 14.1-4.3 14.1-11.9 0-7.7-3.8-10.4-14.1-10.4h-16c-1.6 0-2.5.9-2.5 2.5v19.7h18.5zm.4 39.4c12.7 0 17.4-3.9 17.4-12.7 0-8.4-4.3-13-17.4-13H190v23.2c0 1.6.9 2.5 2.5 2.5h16.4zM257.5 452.1v-5.2c0-3 1.6-4.7 4.7-4.7h11.6v-61.6h-11.6c-3 0-4.7-1.6-4.7-4.7v-5.2c0-3 1.6-4.7 4.7-4.7h39.4c3 0 4.7 1.6 4.7 4.7v5.2c0 3-1.6 4.7-4.7 4.7h-11.5v61.6h11.5c3 0 4.7 1.6 4.7 4.7v5.2c0 3-1.6 4.7-4.7 4.7h-39.4c-3.1-.1-4.7-1.7-4.7-4.7zM616.2 452.1v-5.2c0-3 1.6-4.7 4.7-4.7h11.6v-61.6h-11.6c-3 0-4.7-1.6-4.7-4.7v-5.2c0-3 1.6-4.7 4.7-4.7h39.4c3 0 4.7 1.6 4.7 4.7v5.2c0 3-1.6 4.7-4.7 4.7h-11.5v61.6h11.5c3 0 4.7 1.6 4.7 4.7v5.2c0 3-1.6 4.7-4.7 4.7h-39.4c-3.1-.1-4.7-1.7-4.7-4.7zM393.5 456.7h-7c-2.8 0-4.6-1.3-5.2-4l-3.8-15.6h-36.1l-3.8 15.6c-.6 2.6-2.4 4-5.2 4h-7c-3.3 0-4.8-2-4-5.2l18.5-72.2c2.5-9.9 6.7-13.4 15.5-13.4h7.8c8.9 0 13.1 3.5 15.6 13.4l18.5 72.2c1 3.3-.5 5.2-3.8 5.2zM374.1 423l-8.9-37.1c-1.1-4.4-2.4-5.2-5.2-5.2h-1c-2.8 0-4.2.9-5.2 5.2l-8.9 37.1h29.2zM597.6 456.7h-7c-2.8 0-4.6-1.3-5.2-4l-3.8-15.6h-36.1l-3.8 15.6c-.6 2.6-2.4 4-5.2 4h-7c-3.3 0-4.8-2-4-5.2l18.5-72.2c2.5-9.9 6.7-13.4 15.5-13.4h7.8c8.9 0 13.1 3.5 15.5 13.4l18.5 72.2c1.2 3.3-.3 5.2-3.7 5.2zM578.3 423l-8.9-37.1c-1.1-4.4-2.4-5.2-5.2-5.2h-1c-2.8 0-4.2.9-5.2 5.2l-9 37.1h29.3zM447 402.5c-10.3-3.1-19.3-5.8-19.3-12.6 0-4.7 4-10.1 15.1-10.1h1.3c2.9.2 4.8.3 8.2 1.8 3.7 1.7 4.5 2.4 5.9 3.6 2.4 1.9 3.6 3.6 5.2 4.9 2.9 2.4 5.6 2 7.4-1.1l3-4.4c1.7-2.9 1.2-5.2-1.3-8.1-.9-1-4.6-4.3-5.7-5.1-2.2-1.6-5.7-3.6-6.4-3.9-4.9-2.2-10.8-3.7-17.5-3.7-18.9 0-32.2 11-32.2 26.6 0 17.5 16.2 22.3 30.6 26.6 10.3 3.1 19.3 5.8 19.3 12.6 0 4.6-1.8 9.4-11 11.2-1.8.3-5.4.5-7.6.4-3.1-.1-5.8-.5-9.2-2.1-3.7-1.7-4.5-2.4-5.9-3.6-2.4-1.9-3.4-3.4-4.9-4.7-2.9-2.4-5.8-2.1-7.6.9l-3 4.4c-1.7 2.9-1.2 5.2 1.3 8.1.9 1 4.6 4.2 5.7 5 1.3.9 3 2.1 4.4 2.9 1 .6 5.1 2.4 6.7 3 3.9 1.2 8.2 1.9 12.9 1.9 24.4 0 35.4-14 35.4-27.9-.2-17.4-16.4-22.3-30.8-26.6z"/></g></svg>